<svg id="Capa_1" enable-background="new 0 0 511.986 511.986" height="512" viewBox="0 0 511.986 511.986" width="512" xmlns="http://www.w3.org/2000/svg"><g><path d="m195.68 249.38c4.977 4.859 11.532 7.534 18.501 7.541h.027c6.975 0 13.545-2.673 18.543-7.536 2.638-2.567 3.279-6.703 1.202-9.742-2.746-4.017-8.274-4.395-11.542-1.128-2.196 2.196-5.109 3.405-8.203 3.405h-.115c-3.084 0-5.942-1.355-8.16-3.498-3.218-3.108-8.532-2.775-11.297 1.01-2.227 3.048-1.656 7.313 1.044 9.948z"/><path d="m162.51 172.685c7.111-2.812 13.669-2.546 22.552.898.892.346 1.808.51 2.71.51 3.292 0 6.383-2.183 7.277-5.672.956-3.726-1.248-7.55-4.84-8.929-7.82-3.002-19.719-6.229-33.601-.601-4.158 1.686-5.982 6.676-3.672 10.713 1.886 3.293 6.046 4.477 9.574 3.081z"/><path d="m174.377 183.227c-3.806.462-6.561 3.893-6.561 7.727v5.113c0 3.834 2.754 7.265 6.561 7.727 4.562.554 8.439-2.991 8.439-7.443v-5.682c.001-4.451-3.877-7.996-8.439-7.442z"/><path d="m235.53 174.093c.901 0 1.819-.164 2.71-.51 8.983-3.483 15.596-3.711 22.824-.789 4.31 1.739 9.289-.804 10.202-5.637.668-3.537-1.468-7.032-4.812-8.363-13.646-5.433-24.966-2.526-33.358.697-3.592 1.379-5.798 5.202-4.842 8.929.893 3.489 3.983 5.673 7.276 5.673z"/><path d="m247.047 183.227c-3.806.462-6.561 3.893-6.561 7.727v5.113c0 3.834 2.754 7.265 6.561 7.727 4.562.554 8.439-2.991 8.439-7.443v-5.682c.001-4.451-3.877-7.996-8.439-7.442z"/><path d="m504.988 435.53-21.247-32.229c-1.954-2.964-5.717-4.372-9.025-3.084-4.639 1.806-6.198 7.244-3.62 11.155l15.947 24.189h-14.904c-6.483 0-11.739 5.256-11.739 11.739v49.686h-52.277v-49.686c0-6.483-5.256-11.739-11.739-11.739h-14.883l52.762-80.163 18.595 28.249c2.108 3.203 6.295 4.554 9.729 2.848 4.115-2.045 5.405-7.139 2.957-10.857l-23.319-35.425c-1.906-2.912-4.808-4.582-7.962-4.582s-6.056 1.67-7.952 4.566l-20.919 31.783c-6.538-19.484-19.852-34.727-40.375-46.309-21.34-12.042-46.988-18.106-69.617-23.456-2.907-.688-5.767-1.363-8.558-2.038-.928-.226-1.756-.416-2.495-.585.003-.431.006-.891.006-1.384v-30.13c21.718-19.241 37.992-44.882 43.159-69.652 7.191-1.496 14.469-5.472 20.364-11.297 7.279-7.192 11.454-16.213 11.454-24.748v-11.391c0-10.513-8.522-19.035-19.035-19.035h-11.042v-34.086c0-20.768-8.068-40.524-23.331-57.135-13.296-14.47-32.071-26.339-52.865-33.421-19.507-6.644-40.144-8.859-58.11-6.243-18.913 2.756-34.335 10.604-44.825 22.767-21.283 3.026-53.088 19.155-51.996 88.665.011.694.02 19.452.02 19.452h-11.072c-10.48 0-19.006 8.539-19.006 19.035v11.391c0 8.542 4.174 17.565 11.452 24.757 5.892 5.822 13.171 9.795 20.366 11.29 5.192 24.899 21.599 50.675 43.476 69.947v29.833c0 .49.002.948.006 1.377-.746.171-1.583.363-2.522.592-3.072.745-6.167 1.479-9.275 2.216-21.94 5.205-44.625 10.586-65.048 21.19-3.299 1.713-5.089 5.548-3.924 9.078 1.084 3.284 4.056 5.204 7.15 5.204 1.169 0 2.355-.274 3.463-.853 15.727-8.207 33.564-13.173 51.329-17.509l19.267 45.613c2.662 6.305 6.566 10.46 11.604 12.351 1.991.747 4.075 1.121 6.273 1.121 3.744 0 7.816-1.088 12.301-3.272.179-.087.354-.181.525-.281l.348-.206 12.817 23.577-19.121 52.878c-1.754 4.824-1.418 8.704 1.101 12.937l11.877 20.221h-67.898v-64.829c0-3.834-2.754-7.265-6.561-7.727-4.562-.554-8.439 2.991-8.439 7.443v65.113h-76.646c-.963 0-1.695-.034-2.244-.08.023-.211.053-.448.092-.713l13.668-93.982c1.951-13.414 6.907-24.539 15.146-33.997 2.516-2.888 2.78-7.246.254-10.126-3.051-3.478-8.339-3.392-11.294-.036-10.208 11.599-16.583 25.729-18.95 41.999l-13.665 93.965c-.539 3.641-.839 8.962 2.754 13.126 3.684 4.269 9.265 4.844 14.239 4.844h172.64c.005 0 .01.001.015.001s.01-.001.015-.001h38.367c.005 0 .01.001.015.001s.01-.001.015-.001h160.065v.806c0 6.473 5.279 11.739 11.768 11.739h58.77c6.483 0 11.739-5.256 11.739-11.739v-49.686h21.453c1.913 0 6.992 0 9.47-4.578 2.491-4.602-.375-8.987-1.333-10.453zm-175.736-286.329v-2.247h11.042c2.219 0 4.035 1.816 4.035 4.035v11.391c0 4.486-2.616 9.749-6.997 14.078-2.449 2.419-5.247 4.359-8.081 5.681v-32.938zm-231.106 0v7.901 25.041c-2.836-1.32-5.635-3.259-8.082-5.677-4.38-4.328-6.995-9.595-6.995-14.087v-11.391c0-2.188 1.834-4.035 4.006-4.035h11.071zm190.237 166.766-18.295 43.313c-.955 2.26-2.068 3.769-3.055 4.14-.579.219-2.361.5-6.514-1.47l-6.298-3.715c-.212-.145-.432-.281-.662-.406-.045-.024-.091-.042-.136-.065l-24.809-14.632 50.055-29.514c.658.186 1.343.367 2.088.537.742.17 1.586.363 2.552.598 1.668.405 3.364.809 5.074 1.214zm-130.021-17.76v-18.24c8.138 5.456 16.763 9.978 25.652 13.275 10.895 4.038 20.328 5.919 29.685 5.919 9.369 0 18.795-1.882 29.657-5.919 9.015-3.343 17.756-7.948 25.996-13.506v18.471c0 .662-.005 1.261-.01 1.804-.005.586.001 1.145.019 1.682l-55.511 32.732-55.499-32.733c.019-.553.027-1.127.022-1.732-.006-.529-.011-1.111-.011-1.753zm81.557 69.009-12.541 23.07h-27.041l-12.547-23.081 26.059-15.365zm-85.254-328.808c2.092-.185 3.997-1.224 5.278-2.888 11.295-14.664 30.194-20.52 50.141-20.52 12.861 0 26.159 2.435 38.136 6.514 30.46 10.374 66.031 36.597 66.031 76.356v43.832h-12.369c-17.015 0-27.858-10.164-40.415-21.933-14.948-14.01-31.891-29.89-61.871-29.89h-34.172c-25.106 0-29.176 19.813-32.147 34.28-3.259 15.867-5.734 24.533-20.133 25.375v-.333s-.01-36.145-.022-36.935c-.501-31.973 6.298-70.741 41.543-73.858zm-41.519 143.841v-17.703c27.381-1.159 31.673-22.018 34.826-37.37 3.393-16.518 5.634-22.298 17.454-22.298h34.172c24.05 0 37.438 12.549 51.613 25.834 13.631 12.776 27.727 25.988 50.672 25.988h12.369v25.548c0 36.598-35.566 81.892-76.117 96.931-9.143 3.398-16.907 4.981-24.436 4.981-7.521 0-15.297-1.584-24.47-4.983-40.531-15.03-76.083-60.324-76.083-96.928zm54.018 179.703c-4.13 1.966-5.903 1.685-6.481 1.47-.987-.37-2.1-1.88-3.055-4.142l-18.298-43.32c1.686-.402 3.38-.802 5.055-1.208.964-.234 1.813-.428 2.558-.598.748-.171 1.436-.353 2.096-.54l50.045 29.516zm77.963 94.666-16.367 27.822h-29.83l-16.347-27.831c.021-.063.046-.134.075-.213l18.483-51.111h25.433l18.488 51.123c.027.074.05.142.07.2-.002.005-.003.007-.005.01zm147.995 27.823h-64.417v-64.829c0-3.834-2.754-7.265-6.561-7.727-4.562-.554-8.439 2.991-8.439 7.443v65.113h-67.542l11.907-20.241c2.498-4.282 2.824-8.146 1.094-12.904l-19.126-52.89 12.81-23.565.326.192c.174.103.352.198.534.287 7.136 3.466 13.222 4.164 18.604 2.142 5.034-1.893 8.935-6.046 11.594-12.345l19.27-45.621c41.221 10.055 83.975 23.86 90.944 69.607l-30.546 46.409c-.954 1.438-3.858 5.816-1.373 10.446 2.47 4.603 7.554 4.603 9.468 4.603h21.453z"/><path d="m392.121 269.544-.613 31.737c-.09 5.339 2.196 8.128 4.13 9.527 1.269.918 3.152 1.793 5.72 1.793 1.35 0 2.89-.242 4.629-.847l29.96-10.369 29.948 10.364c5.057 1.76 8.426.46 10.361-.941 1.934-1.399 4.221-4.188 4.13-9.545l-.613-31.72 19.164-25.33c2.56-3.426 3.317-6.825 2.251-10.106s-3.681-5.588-7.808-6.866l-30.333-9.223-18.153-26.017c-.003-.004-.006-.008-.009-.013-3.066-4.375-6.554-5.294-8.939-5.294s-5.873.919-8.951 5.312l-18.123 26.012-30.397 9.234c-4.089 1.267-6.703 3.573-7.77 6.854-1.066 3.281-.309 6.681 2.278 10.142zm23.6-37.929c1.611-.489 3.011-1.507 3.974-2.889l16.255-23.331 16.282 23.335c.962 1.379 2.361 2.395 3.97 2.885l27.202 8.271-17.159 22.68c-1.016 1.342-1.55 2.987-1.517 4.67l.549 28.428-26.875-9.302c-1.59-.549-3.316-.549-4.906 0l-26.875 9.302.549-28.428c.033-1.683-.502-3.328-1.517-4.67l-17.158-22.679z"/></g></svg>